<?xml version="1.0" standalone="no"?>
<!DOCTYPE svg PUBLIC "-//W3C//DTD SVG 20010904//EN"
 "http://www.w3.org/TR/2001/REC-SVG-20010904/DTD/svg10.dtd">
<svg version="1.0" xmlns="http://www.w3.org/2000/svg"
 width="843.000000pt" height="843.000000pt" viewBox="0 0 843.000000 843.000000"
 preserveAspectRatio="xMidYMid meet">
<metadata>
Created by potrace 1.14, written by Peter Selinger 2001-2017
</metadata>
<g transform="translate(0.000000,843.000000) scale(0.100000,-0.100000)"
fill="#000000" stroke="none">
<path d="M1979 8426 c-2 -2 -24 -7 -49 -10 -49 -7 -170 -35 -264 -60 -98 -27
-285 -104 -403 -166 -97 -51 -256 -149 -303 -187 -8 -6 -46 -37 -85 -68 -342
-275 -614 -679 -747 -1110 -27 -87 -39 -141 -63 -270 -7 -44 -17 -98 -21 -120
-4 -22 -9 -987 -10 -2145 -3 -2279 -5 -2190 51 -2443 209 -955 1014 -1678
1986 -1784 94 -10 4140 -11 4234 0 39 4 81 9 95 11 14 2 45 7 70 11 243 35
611 180 845 333 261 170 501 410 677 678 69 104 183 328 218 429 53 150 88
270 104 360 3 17 9 44 12 60 32 166 33 223 31 2345 -2 1968 -4 2112 -20 2210
-46 266 -120 491 -236 713 -127 244 -257 417 -463 614 -313 301 -773 529
-1195 592 -50 8 -744 11 -2266 11 -1206 0 -2196 -2 -2198 -4z"/>
</g>
</svg>
